<?xml version="1.0" standalone="no"?>
<!DOCTYPE svg PUBLIC "-//W3C//DTD SVG 20010904//EN"
 "http://www.w3.org/TR/2001/REC-SVG-20010904/DTD/svg10.dtd">
<svg version="1.0" xmlns="http://www.w3.org/2000/svg"
 width="323.000000pt" height="198.000000pt" viewBox="0 0 323.000000 198.000000"
 preserveAspectRatio="xMidYMid meet">

<g transform="translate(0.000000,198.000000) scale(0.100000,-0.100000)"
fill="#000000" stroke="none">
<path d="M1410 1880 c-80 -4 -165 -8 -189 -9 -35 -1 -42 -4 -37 -17 7 -17 -25
-85 -78 -163 -60 -89 -78 -85 422 -89 580 -5 656 3 598 61 -33 33 -107 173
-100 190 4 13 -14 16 -123 21 -247 12 -349 13 -493 6z m443 -18 c36 -3 35 -22
-1 -22 -34 0 -65 -30 -87 -83 l-15 -37 -145 0 -145 0 -15 37 c-21 50 -53 83
-81 83 -42 0 -35 19 8 22 43 3 429 3 481 0z m-607 -83 l15 -31 85 7 84 7 11
-30 c6 -19 19 -32 35 -36 14 -4 30 -18 36 -31 11 -24 16 -25 93 -25 75 0 83 2
88 21 3 11 19 25 35 31 17 7 33 23 40 41 l11 30 90 -6 89 -7 12 30 c7 17 16
33 21 35 6 5 69 -93 69 -108 0 -3 -17 1 -37 9 l-38 15 38 -33 c20 -18 37 -41
37 -50 0 -17 -28 -18 -455 -18 -464 0 -472 1 -447 35 4 6 19 18 35 28 39 25
33 39 -9 21 -20 -8 -34 -11 -33 -7 17 39 65 111 71 107 5 -3 15 -19 24 -35z"/>
<path d="M1250 1685 c0 -13 14 -15 87 -13 58 2 88 7 91 16 3 9 -19 12 -87 12
-75 0 -91 -3 -91 -15z"/>
<path d="M1783 1688 c2 -9 29 -13 87 -13 58 0 85 4 88 13 3 9 -19 12 -88 12
-69 0 -91 -3 -87 -12z"/>
<path d="M1052 1543 c7 -8 51 -33 98 -55 47 -21 98 -51 114 -66 l29 -27 -21
32 c-27 39 -66 63 -161 102 -47 19 -68 24 -59 14z"/>
<path d="M2080 1526 c-94 -40 -125 -61 -152 -100 l-21 -31 29 27 c16 15 67 45
114 66 47 22 92 47 99 56 7 9 12 16 10 15 -2 0 -38 -15 -79 -33z"/>
<path d="M706 1515 c-9 -26 -7 -32 5 -12 6 10 9 21 6 23 -2 3 -7 -2 -11 -11z"/>
<path d="M2480 1523 c0 -4 5 -15 10 -23 8 -13 10 -13 10 2 0 9 -4 20 -10 23
-5 3 -10 3 -10 -2z"/>
<path d="M691 1464 c0 -11 3 -14 6 -6 3 7 2 16 -1 19 -3 4 -6 -2 -5 -13z"/>
<path d="M784 1403 c-11 -44 3 -128 36 -207 25 -59 31 -86 27 -114 -4 -20 -8
-46 -9 -57 -5 -33 54 -53 193 -66 180 -16 217 3 142 76 -44 42 -119 87 -186
109 -27 9 -61 23 -77 31 -55 28 -124 151 -72 130 39 -17 166 -44 238 -50 63
-6 76 -5 72 6 -6 18 -171 101 -275 138 l-83 30 -6 -26z m86 -38 c0 -7 13 -25
30 -38 29 -25 80 -39 188 -52 29 -4 51 -9 48 -12 -2 -3 -44 0 -93 7 -110 14
-168 40 -182 82 -13 38 -14 41 -1 33 6 -3 10 -12 10 -20z"/>
<path d="M2295 1386 c-122 -46 -236 -105 -243 -125 -6 -19 125 -6 241 23 102
26 109 19 56 -52 -34 -46 -65 -66 -139 -88 -63 -18 -197 -107 -212 -139 -19
-41 0 -50 105 -49 109 2 224 20 251 39 17 13 18 19 8 53 -17 56 -15 68 23 162
27 65 35 100 35 147 0 34 -3 64 -7 66 -5 3 -57 -14 -118 -37z m50 -18 c-17
-61 -84 -90 -230 -102 l-60 -4 55 10 c30 5 79 14 108 20 58 10 112 49 112 79
0 10 5 19 11 19 6 0 8 -9 4 -22z"/>
<path d="M2509 1370 c-4 -52 -15 -85 -53 -162 -43 -85 -48 -103 -43 -140 4
-29 14 -50 32 -66 35 -30 59 -16 74 42 12 49 13 247 2 336 l-7 55 -5 -65z"/>
<path d="M677 1355 c-10 -103 -9 -247 4 -305 15 -69 39 -81 79 -41 24 24 30
38 30 73 0 40 -7 56 -78 192 -8 17 -18 57 -21 90 l-7 61 -7 -70z"/>
<path d="M1225 1156 c-20 -15 -20 -15 0 -16 129 -4 230 -22 289 -50 35 -16 70
-30 78 -30 8 0 39 13 69 29 44 24 71 30 144 36 277 19 200 33 -179 33 -177 -1
-335 2 -351 6 -20 4 -37 2 -50 -8z"/>
<path d="M1190 1050 c0 -11 96 -23 135 -17 20 3 13 4 -20 6 -28 0 -65 5 -83
10 -17 5 -32 6 -32 1z"/>
<path d="M1965 1050 c-19 -8 -19 -9 3 -9 12 -1 22 4 22 9 0 6 -1 10 -2 9 -2 0
-12 -4 -23 -9z"/>
<path d="M1645 1030 l-200 -6 195 -1 c107 0 220 2 250 7 l55 7 -50 -1 c-27 0
-140 -3 -250 -6z"/>
<path d="M617 950 c-12 -12 -15 -20 -8 -25 6 -3 9 -10 6 -15 -15 -24 190 -81
380 -104 536 -68 1279 -31 1526 75 34 15 46 25 37 30 -9 6 -8 9 5 15 9 3 17
10 17 16 0 5 -5 6 -10 3 -6 -3 -13 1 -16 9 -4 11 -11 13 -30 5 -17 -6 -23 -6
-19 1 9 15 0 13 -78 -15 -348 -126 -1327 -126 -1675 0 -77 28 -86 30 -77 15 8
-12 -1 -13 -23 -1 -12 6 -23 3 -35 -9z"/>
<path d="M563 628 c-6 -7 -27 -67 -48 -133 -20 -66 -43 -124 -51 -128 -28 -16
-13 -27 36 -27 38 0 50 4 50 15 0 8 -9 15 -19 15 -18 0 -19 3 -9 30 10 30 11
31 71 28 57 -3 61 -5 68 -30 6 -23 4 -28 -12 -28 -10 0 -19 -7 -19 -15 0 -11
12 -15 50 -15 38 0 50 4 50 15 0 8 -6 15 -13 15 -8 0 -29 53 -55 135 -39 123
-44 135 -66 135 -13 0 -28 -6 -33 -12z m56 -90 c11 -40 21 -76 21 -80 0 -5
-22 -8 -50 -8 -27 0 -50 3 -50 6 0 18 44 154 50 154 4 0 17 -33 29 -72z"/>
<path d="M760 625 c0 -8 7 -15 15 -15 12 0 15 -18 15 -99 0 -111 8 -144 42
-162 37 -20 107 -14 132 10 18 18 22 38 27 133 5 88 10 113 23 120 25 14 9 28
-34 28 -41 0 -62 -16 -36 -26 13 -5 16 -24 16 -103 0 -121 -12 -144 -73 -139
-56 4 -67 28 -67 146 0 75 3 92 15 92 8 0 15 7 15 15 0 11 -12 15 -45 15 -33
0 -45 -4 -45 -15z"/>
<path d="M1067 633 c-4 -3 -7 -24 -7 -45 0 -45 27 -54 32 -10 3 23 8 27 33 27
l30 0 3 -117 c3 -113 2 -118 -18 -118 -11 0 -20 -7 -20 -15 0 -12 13 -15 60
-15 45 0 60 3 60 14 0 8 -10 16 -22 18 -22 3 -23 6 -23 118 l0 115 31 3 c28 3
32 0 37 -27 10 -47 27 -37 27 14 l0 45 -108 0 c-60 0 -112 -3 -115 -7z"/>
<path d="M1378 611 c-32 -28 -33 -33 -36 -113 -2 -69 0 -88 17 -115 37 -59
145 -66 196 -13 22 23 28 41 32 93 10 121 -29 177 -123 177 -45 0 -59 -5 -86
-29z m146 -24 c43 -43 42 -161 -3 -201 -40 -36 -112 -21 -135 28 -29 61 -13
160 31 185 32 18 82 13 107 -12z"/>
<path d="M1682 624 c-24 -17 -30 -61 -12 -95 6 -10 39 -32 73 -47 81 -37 95
-54 73 -87 -13 -20 -25 -25 -59 -25 -50 0 -67 13 -67 52 0 18 -5 28 -15 28
-23 0 -19 -66 5 -90 31 -31 123 -30 158 3 26 25 30 78 6 102 -9 9 -45 30 -80
46 -69 33 -90 63 -58 86 40 29 96 11 112 -37 6 -16 18 -30 26 -30 12 0 16 11
16 49 0 51 -17 79 -27 43 -5 -20 -5 -20 -24 -1 -24 24 -95 26 -127 3z"/>
<path d="M1920 626 c0 -8 7 -16 15 -20 12 -4 15 -27 15 -121 0 -96 -3 -115
-15 -115 -8 0 -15 -7 -15 -15 0 -12 18 -15 105 -15 l105 0 0 46 c0 49 -20 58
-30 13 -5 -22 -11 -24 -60 -24 l-55 0 -3 48 -3 47 40 0 c31 0 41 -4 41 -16 0
-8 5 -12 10 -9 12 8 13 85 1 85 -5 0 -12 -7 -15 -16 -4 -10 -16 -14 -38 -12
-32 3 -33 4 -33 53 l0 50 55 0 c53 0 55 -1 58 -27 6 -49 32 -34 32 17 l0 45
-105 0 c-83 0 -105 -3 -105 -14z"/>
<path d="M2190 627 c0 -8 7 -17 15 -21 12 -4 15 -27 15 -121 0 -96 -3 -115
-15 -115 -8 0 -15 -7 -15 -15 0 -11 12 -15 50 -15 38 0 50 4 50 15 0 8 -9 15
-20 15 -17 0 -20 7 -20 45 0 45 0 45 34 45 30 0 35 -4 41 -30 9 -43 52 -90 81
-90 31 0 31 17 0 31 -21 10 -56 65 -56 90 0 5 11 14 25 21 30 14 49 65 36 99
-16 43 -38 53 -132 57 -75 4 -89 2 -89 -11z m160 -30 c19 -10 25 -20 25 -47 0
-41 -28 -60 -87 -60 l-38 0 0 60 0 60 38 0 c20 0 48 -6 62 -13z"/>
<path d="M2554 618 c-6 -13 -26 -74 -45 -135 -19 -65 -39 -113 -46 -113 -7 0
-13 -7 -13 -15 0 -11 12 -15 50 -15 38 0 50 4 50 15 0 8 -9 15 -20 15 -23 0
-23 0 -10 34 9 24 14 26 69 26 44 0 60 -4 65 -16 10 -27 7 -44 -9 -44 -8 0
-15 -7 -15 -15 0 -11 12 -15 50 -15 54 0 59 4 34 29 -9 9 -34 72 -57 141 -38
114 -44 125 -68 128 -19 2 -28 -3 -35 -20z m65 -92 c12 -37 21 -70 21 -72 0
-2 -22 -4 -50 -4 -30 0 -50 4 -50 11 0 27 43 150 50 142 5 -4 18 -39 29 -77z"/>
<path d="M1385 55 c0 -45 3 -55 17 -55 14 0 17 7 13 33 l-5 32 14 -30 c17 -36
25 -36 43 2 l13 28 -5 -32 c-4 -26 -1 -33 13 -33 14 0 17 10 17 55 0 46 -3 55
-17 55 -11 0 -23 -13 -31 -32 l-13 -33 -12 33 c-7 20 -18 32 -29 32 -15 0 -18
-9 -18 -55z"/>
<path d="M1675 55 c0 -49 2 -55 21 -55 17 0 21 5 18 28 l-4 27 11 -27 c14 -36
24 -35 37 5 l12 32 -5 -32 c-4 -26 -1 -33 13 -33 14 0 17 10 17 55 0 44 -3 55
-17 55 -9 0 -21 -14 -28 -32 l-12 -33 -14 33 c-8 18 -21 32 -32 32 -14 0 -17
-9 -17 -55z"/>
<path d="M2110 50 c0 -7 177 -10 510 -10 333 0 510 3 510 10 0 7 -177 10 -510
10 -333 0 -510 -3 -510 -10z"/>
<path d="M80 40 c0 -7 177 -10 510 -10 333 0 510 3 510 10 0 7 -177 10 -510
10 -333 0 -510 -3 -510 -10z"/>
<path d="M1580 15 c0 -9 5 -15 11 -13 6 2 11 8 11 13 0 5 -5 11 -11 13 -6 2
-11 -4 -11 -13z"/>
</g>
</svg>
