<?xml version="1.0" standalone="no"?>
<!DOCTYPE svg PUBLIC "-//W3C//DTD SVG 20010904//EN"
 "http://www.w3.org/TR/2001/REC-SVG-20010904/DTD/svg10.dtd">
<svg version="1.0" xmlns="http://www.w3.org/2000/svg"
 width="313.000000pt" height="201.000000pt" viewBox="0 0 313.000000 201.000000"
 preserveAspectRatio="xMidYMid meet">

<g transform="translate(0.000000,201.000000) scale(0.100000,-0.100000)"
fill="#000000" stroke="none">
<path d="M1370 1900 c-80 -4 -165 -8 -189 -9 -35 -1 -42 -4 -37 -17 7 -17 -25
-85 -78 -163 -60 -89 -78 -85 422 -89 580 -5 656 3 598 61 -33 33 -107 173
-100 190 4 13 -14 16 -123 21 -247 12 -349 13 -493 6z m443 -18 c36 -3 35 -22
-1 -22 -34 0 -65 -30 -87 -83 l-15 -37 -145 0 -145 0 -15 37 c-21 50 -53 83
-81 83 -42 0 -35 19 8 22 43 3 429 3 481 0z m-607 -83 l15 -31 85 7 84 7 11
-30 c6 -19 19 -32 35 -36 14 -4 30 -18 36 -31 11 -24 16 -25 93 -25 75 0 83 2
88 21 3 11 19 25 35 31 17 7 33 23 40 41 l11 30 90 -6 89 -7 12 30 c7 17 16
33 21 35 6 5 69 -93 69 -108 0 -3 -17 1 -37 9 l-38 15 38 -33 c20 -18 37 -41
37 -50 0 -17 -28 -18 -455 -18 -464 0 -472 1 -447 35 4 6 19 18 35 28 39 25
33 39 -9 21 -20 -8 -34 -11 -33 -7 17 39 65 111 71 107 5 -3 15 -19 24 -35z"/>
<path d="M1210 1705 c0 -13 14 -15 87 -13 58 2 88 7 91 16 3 9 -19 12 -87 12
-75 0 -91 -3 -91 -15z"/>
<path d="M1743 1708 c2 -9 29 -13 87 -13 58 0 85 4 88 13 3 9 -19 12 -88 12
-69 0 -91 -3 -87 -12z"/>
<path d="M1012 1563 c7 -8 51 -33 98 -55 47 -21 98 -51 114 -66 l29 -27 -21
32 c-27 39 -66 63 -161 102 -47 19 -68 24 -59 14z"/>
<path d="M2040 1546 c-94 -40 -125 -61 -152 -100 l-21 -31 29 27 c16 15 67 45
114 66 47 22 92 47 99 56 7 9 12 16 10 15 -2 0 -38 -15 -79 -33z"/>
<path d="M666 1535 c-9 -26 -7 -32 5 -12 6 10 9 21 6 23 -2 3 -7 -2 -11 -11z"/>
<path d="M2440 1543 c0 -4 5 -15 10 -23 8 -13 10 -13 10 2 0 9 -4 20 -10 23
-5 3 -10 3 -10 -2z"/>
<path d="M651 1484 c0 -11 3 -14 6 -6 3 7 2 16 -1 19 -3 4 -6 -2 -5 -13z"/>
<path d="M744 1423 c-11 -44 3 -128 36 -207 25 -59 31 -86 27 -114 -4 -20 -8
-46 -9 -57 -5 -33 54 -53 193 -66 180 -16 217 3 142 76 -44 42 -119 87 -186
109 -27 9 -61 23 -77 31 -55 28 -124 151 -72 130 39 -17 166 -44 238 -50 63
-6 76 -5 72 6 -6 18 -171 101 -275 138 l-83 30 -6 -26z m86 -38 c0 -7 13 -25
30 -38 29 -25 80 -39 188 -52 29 -4 51 -9 48 -12 -2 -3 -44 0 -93 7 -110 14
-168 40 -182 82 -13 38 -14 41 -1 33 6 -3 10 -12 10 -20z"/>
<path d="M2255 1406 c-122 -46 -236 -105 -243 -125 -6 -19 125 -6 241 23 102
26 109 19 56 -52 -34 -46 -65 -66 -139 -88 -63 -18 -197 -107 -212 -139 -19
-41 0 -50 105 -49 109 2 224 20 251 39 17 13 18 19 8 53 -17 56 -15 68 23 162
27 65 35 100 35 147 0 34 -3 64 -7 66 -5 3 -57 -14 -118 -37z m50 -18 c-17
-61 -84 -90 -230 -102 l-60 -4 55 10 c30 5 79 14 108 20 58 10 112 49 112 79
0 10 5 19 11 19 6 0 8 -9 4 -22z"/>
<path d="M2469 1390 c-4 -52 -15 -85 -53 -162 -43 -85 -48 -103 -43 -140 4
-29 14 -50 32 -66 35 -30 59 -16 74 42 12 49 13 247 2 336 l-7 55 -5 -65z"/>
<path d="M637 1375 c-10 -103 -9 -247 4 -305 15 -69 39 -81 79 -41 24 24 30
38 30 73 0 40 -7 56 -78 192 -8 17 -18 57 -21 90 l-7 61 -7 -70z"/>
<path d="M1185 1176 c-20 -15 -20 -15 0 -16 129 -4 230 -22 289 -50 35 -16 70
-30 78 -30 8 0 39 13 69 29 44 24 71 30 144 36 277 19 200 33 -179 33 -177 -1
-335 2 -351 6 -20 4 -37 2 -50 -8z"/>
<path d="M1150 1070 c0 -11 96 -23 135 -17 20 3 13 4 -20 6 -28 0 -65 5 -83
10 -17 5 -32 6 -32 1z"/>
<path d="M1925 1070 c-19 -8 -19 -9 3 -9 12 -1 22 4 22 9 0 6 -1 10 -2 9 -2 0
-12 -4 -23 -9z"/>
<path d="M1605 1050 l-200 -6 195 -1 c107 0 220 2 250 7 l55 7 -50 -1 c-27 0
-140 -3 -250 -6z"/>
<path d="M577 970 c-12 -12 -15 -20 -8 -25 6 -3 9 -10 6 -15 -15 -24 190 -81
380 -104 536 -68 1279 -31 1526 75 34 15 46 25 37 30 -9 6 -8 9 5 15 9 3 17
10 17 16 0 5 -5 6 -10 3 -6 -3 -13 1 -16 9 -4 11 -11 13 -30 5 -17 -6 -23 -6
-19 1 9 15 0 13 -78 -15 -348 -126 -1327 -126 -1675 0 -77 28 -86 30 -77 15 8
-12 -1 -13 -23 -1 -12 6 -23 3 -35 -9z"/>
<path d="M232 643 c-5 -10 -26 -71 -46 -135 -20 -65 -41 -118 -46 -118 -6 0
-10 -7 -10 -15 0 -11 12 -15 44 -15 48 0 72 18 37 27 -21 5 -26 19 -15 47 5
12 21 16 65 16 55 0 60 -2 69 -26 13 -34 13 -34 -10 -34 -11 0 -20 -7 -20 -15
0 -11 12 -15 50 -15 36 0 50 4 50 14 0 8 -6 16 -12 18 -7 3 -31 63 -53 134
-38 120 -43 129 -67 132 -18 2 -30 -3 -36 -15z m58 -82 c11 -37 20 -73 20 -80
0 -7 -19 -11 -50 -11 -27 0 -50 2 -50 4 0 7 42 141 47 149 8 14 12 7 33 -62z"/>
<path d="M430 645 c0 -8 7 -15 15 -15 12 0 15 -17 15 -95 0 -123 14 -160 66
-174 49 -14 104 1 123 31 9 15 16 62 19 131 4 85 8 107 19 107 8 0 13 6 11 13
-3 6 -23 13 -46 15 -33 2 -42 0 -42 -12 0 -9 5 -16 10 -16 6 0 10 -41 10 -104
0 -124 -8 -139 -74 -134 -37 3 -42 6 -53 38 -7 19 -12 72 -12 118 -1 66 2 82
14 82 8 0 15 7 15 15 0 11 -12 15 -45 15 -33 0 -45 -4 -45 -15z"/>
<path d="M734 646 c-8 -22 0 -69 12 -73 6 -2 14 10 17 27 6 25 11 30 37 30
l30 0 0 -120 c0 -113 -1 -120 -20 -120 -11 0 -20 -7 -20 -15 0 -12 13 -15 60
-15 47 0 60 3 60 15 0 8 -9 15 -20 15 -19 0 -20 7 -20 120 l0 120 29 0 c25 0
31 -5 36 -30 10 -45 25 -36 25 15 l0 45 -110 0 c-86 0 -112 -3 -116 -14z"/>
<path d="M1061 644 c-32 -23 -51 -74 -51 -140 0 -103 39 -148 129 -148 93 0
126 50 119 176 -3 64 -7 73 -36 99 -27 24 -41 29 -85 29 -32 0 -61 -6 -76 -16z
m126 -29 c48 -33 55 -158 12 -204 -19 -20 -41 -26 -84 -21 -72 7 -99 157 -39
217 27 27 78 31 111 8z"/>
<path d="M1352 644 c-23 -16 -30 -66 -12 -94 5 -8 39 -31 76 -50 82 -42 96
-61 70 -89 -26 -29 -101 -29 -116 -2 -5 11 -10 29 -10 40 0 12 -7 21 -15 21
-19 0 -20 -59 -2 -84 27 -37 147 -37 174 0 14 19 17 62 7 89 -4 9 -37 31 -73
50 -37 18 -73 40 -79 48 -29 34 24 69 77 51 15 -5 32 -23 40 -42 23 -51 41
-41 41 23 0 30 -4 55 -10 55 -5 0 -10 -9 -10 -21 l0 -20 -26 20 c-32 25 -100
28 -132 5z"/>
<path d="M1590 645 c0 -8 7 -15 15 -15 13 0 15 -20 15 -120 0 -100 -2 -120
-15 -120 -8 0 -15 -7 -15 -15 0 -12 13 -15 55 -15 42 0 55 3 55 15 0 8 -9 15
-20 15 -16 0 -20 7 -20 34 0 33 1 34 50 41 72 10 100 35 100 91 0 25 -4 54
-10 64 -14 26 -63 40 -141 40 -55 0 -69 -3 -69 -15z m154 -25 c28 -10 42 -46
32 -84 -6 -25 -48 -46 -92 -46 -23 0 -24 3 -24 70 l0 70 29 0 c16 0 41 -4 55
-10z"/>
<path d="M1860 645 c0 -8 9 -15 20 -15 19 0 20 -7 20 -119 0 -110 -1 -119 -20
-124 -41 -11 -20 -27 34 -27 56 0 85 17 47 27 -18 4 -21 13 -21 54 l0 49 65 0
65 0 0 -50 c0 -43 -3 -50 -20 -50 -11 0 -20 -7 -20 -15 0 -12 13 -15 55 -15
42 0 55 3 55 15 0 8 -9 15 -20 15 -19 0 -20 7 -20 120 0 113 1 120 20 120 11
0 20 7 20 15 0 12 -13 15 -55 15 -42 0 -55 -3 -55 -15 0 -8 9 -15 21 -15 18 0
20 -5 17 -52 l-3 -53 -62 -3 -63 -3 0 54 c0 47 3 55 21 60 38 10 9 27 -47 27
-41 0 -54 -4 -54 -15z"/>
<path d="M2200 646 c0 -7 7 -16 15 -20 12 -4 15 -27 15 -116 0 -89 -3 -112
-15 -116 -8 -4 -15 -13 -15 -20 0 -12 19 -14 103 -12 l102 3 0 39 c0 46 -22
61 -27 19 -3 -27 -6 -28 -60 -31 l-58 -3 0 51 0 50 40 0 c30 0 40 -4 40 -16 0
-8 5 -12 10 -9 12 8 13 85 1 85 -5 0 -12 -7 -15 -16 -4 -10 -16 -14 -38 -12
-32 3 -33 4 -36 56 l-3 52 56 0 c54 0 56 -1 62 -30 9 -49 35 -38 31 13 l-3 42
-102 3 c-84 2 -103 0 -103 -12z"/>
<path d="M2467 653 c-12 -11 -8 -23 8 -23 13 0 15 -20 15 -120 0 -103 -2 -120
-16 -120 -9 0 -14 -6 -11 -12 2 -8 22 -13 52 -13 30 0 50 5 53 13 2 7 -5 12
-17 12 -18 0 -21 6 -21 45 0 43 1 45 29 45 26 0 32 -6 47 -46 18 -47 46 -74
76 -74 24 0 23 26 -1 33 -23 6 -69 89 -53 95 35 11 62 45 62 78 0 48 -14 70
-51 83 -35 12 -161 15 -172 4z m156 -32 c28 -11 42 -41 32 -69 -7 -24 -46 -42
-90 -42 l-35 0 0 60 0 60 34 0 c19 0 46 -4 59 -9z"/>
<path d="M2747 653 c-12 -11 -8 -23 8 -23 13 0 15 -20 15 -120 0 -103 -2 -120
-16 -120 -9 0 -14 -6 -12 -12 3 -9 36 -14 106 -16 l102 -3 0 46 c0 51 -15 60
-25 15 -6 -29 -9 -30 -61 -30 l-54 0 0 50 c0 49 0 50 31 50 19 0 37 -7 45 -17
12 -16 13 -12 14 30 0 26 -4 47 -10 47 -5 0 -10 -7 -10 -15 0 -10 -11 -15 -35
-15 l-35 0 0 55 0 55 54 0 c52 0 55 -1 61 -30 10 -45 25 -36 25 15 l0 45 -98
0 c-54 0 -102 -3 -105 -7z"/>
<path d="M1345 75 c0 -45 3 -55 17 -55 14 0 17 7 13 33 l-5 32 14 -30 c17 -36
25 -36 43 2 l13 28 -5 -32 c-4 -26 -1 -33 13 -33 14 0 17 10 17 55 0 46 -3 55
-17 55 -11 0 -23 -13 -31 -32 l-13 -33 -12 33 c-7 20 -18 32 -29 32 -15 0 -18
-9 -18 -55z"/>
<path d="M1635 75 c0 -49 2 -55 21 -55 17 0 21 5 18 28 l-4 27 11 -27 c14 -36
24 -35 37 5 l12 32 -5 -32 c-4 -26 -1 -33 13 -33 14 0 17 10 17 55 0 44 -3 55
-17 55 -9 0 -21 -14 -28 -32 l-12 -33 -14 33 c-8 18 -21 32 -32 32 -14 0 -17
-9 -17 -55z"/>
<path d="M2070 70 c0 -7 177 -10 510 -10 333 0 510 3 510 10 0 7 -177 10 -510
10 -333 0 -510 -3 -510 -10z"/>
<path d="M40 60 c0 -7 177 -10 510 -10 333 0 510 3 510 10 0 7 -177 10 -510
10 -333 0 -510 -3 -510 -10z"/>
<path d="M1540 35 c0 -9 5 -15 11 -13 6 2 11 8 11 13 0 5 -5 11 -11 13 -6 2
-11 -4 -11 -13z"/>
</g>
</svg>
